# xmcd
#
# Track frame offsets:
#	150
#	11950
#	22067
#	31482
#	43330
#	57355
#	69052
#	81255
#	93465
#
# Disc length: 1393 seconds
#
# Revision: 0
# Processed by: cddbd v1.5.1PL0 Copyright (c) Steve Scherf et al.
# Submitted via: audiograbber 1.83.01
#
DISCID=76056f09
DTITLE=Os Cariocas - Os Grandes da MPB - 052
DYEAR=1998
DGENRE=Bossa Nova
TTITLE0=Vivo Sonhando
TTITLE1=Telefone
TTITLE2=Samba de Verão
TTITLE3=Samba do Avião
TTITLE4=Preciso Aprender a Ser Só
TTITLE5=Ela é Carioca
TTITLE6=Desafinado
TTITLE7=Insensatez
TTITLE8=O Amor em Paz
EXTD=JS LKTS
EXTT0=
EXTT1=
EXTT2=
EXTT3=
EXTT4=
EXTT5=
EXTT6=
EXTT7=
EXTT8=
PLAYORDER=
